<svg xmlns="http://www.w3.org/2000/svg" width="60" height="76" fill="none" viewBox="0 0 60 76"><path fill="#fff" fill-rule="evenodd" d="M56.9685 45.1601C57.4689 44.8966 57.96 44.6156 58.4409 44.3178C58.7803 44.1146 58.4798 43.6033 58.1319 43.788C57.9539 43.8825 57.7767 43.9782 57.5988 44.072C57.739 43.952 57.8682 43.8199 57.985 43.677L57.9769 43.6689C58.4254 43.267 57.8492 42.5085 57.3393 42.8386C56.8895 43.1648 56.4354 43.4977 55.919 43.7124C54.8497 44.1663 53.6701 44.2413 52.5222 44.2543C52.102 44.2228 51.7007 44.2955 51.2932 44.3766C51.4531 43.7354 51.8529 43.2512 52.0651 42.6299C52.2215 42.0028 51.3166 41.5758 50.996 42.1786C50.9176 42.3266 50.8419 42.4761 50.769 42.6269C50.0759 43.2575 48.9185 43.2019 48.2193 43.879C47.8211 44.2325 47.6263 44.7123 47.5494 45.1937C47.497 45.5208 47.5783 45.8483 47.3807 46.1379C46.4254 47.4897 44.9161 49.6263 44.1493 51.114C43.6068 47.5789 42.1575 43.2067 40.6603 39.9744C40.1652 38.9407 39.5988 37.9307 38.8552 37.0545C38.9395 36.7622 38.642 36.2435 38.4528 36.4031C37.8706 35.6917 36.8414 35.5075 36.0136 35.1538C34.8966 34.6758 33.9695 33.6825 33.514 32.5534C32.9284 30.4033 31.4872 30.1302 29.4885 30.2252C27.5756 30.2229 26.1604 31.0413 25.743 32.9894C24.8951 34.4678 22.8931 34.2234 21.4526 34.6147C20.3972 34.8561 19.3728 35.229 18.3993 35.7026C17.3161 34.6747 13.4372 38.988 13.0846 40.0981C13.2922 40.1382 13.4986 40.1868 13.7029 40.2456C13.885 40.2985 13.8085 40.5734 13.6248 40.5294C13.3964 40.4745 13.1664 40.4368 12.9354 40.4106C12.9285 40.4326 12.9222 40.4546 12.9176 40.4764L12.8397 40.4706C12.8972 40.5005 12.9525 40.5352 13.0065 40.5802C13.137 40.6883 12.9671 40.8975 12.8286 40.8111C12.6982 40.7134 12.5272 40.7289 12.3706 40.696C12.3614 41.0182 11.2123 40.6578 11.0339 40.5512C10.241 40.4518 9.42506 40.5584 8.68467 40.1757C7.69942 39.9681 6.70699 39.7388 5.73286 39.4744C5.47502 39.575 5.23247 39.9348 5.43726 40.1988C5.55263 40.3191 5.40436 40.5153 5.25934 40.4298C4.77286 40.1433 4.39664 39.6961 4.07764 39.2143C3.92753 39.0628 3.66089 39.0955 3.45911 39.0324C3.43224 39.0811 3.41625 39.1351 3.41649 39.1904C2.56073 39.3313 3.17116 40.2665 3.60135 40.5577C3.37317 40.7064 3.36459 40.9974 3.38452 41.2406C3.3361 41.3273 3.32012 41.4345 3.36205 41.5316C3.52305 41.9025 3.871 42.215 4.13579 42.5155C4.42768 42.8474 4.6883 43.1812 5.0439 43.4502C6.39911 44.4836 8.0344 45.0614 9.71185 45.2873C10.3077 45.3788 11.1644 45.5189 11.5334 46.0228C11.4431 46.6207 11.2767 47.1943 11.1259 47.7774C10.9151 48.5516 10.9295 49.3619 10.9267 50.151C10.8973 50.1273 10.8407 50.1322 10.8322 50.1774C10.7833 50.5045 10.7467 50.839 10.5479 51.114C10.3737 51.625 10.2579 52.1701 10.1925 52.7071C9.9317 55.2531 9.86938 57.8738 10.4578 60.3799C10.6839 61.3079 11.0549 62.1944 11.5573 63.0067C11.7071 63.2495 11.9483 63.3206 12.1649 63.2729C12.89 63.6496 13.8027 63.7703 14.5841 63.6746C17.2478 62.9203 16.3197 64.7368 20.0541 64.1805C26.5 63.3591 33.0146 64.9733 39.4468 64.0256C39.6053 65.2497 41.6791 64.8985 42.3996 64.3812C44.5596 62.7746 45.6322 57.6887 46.7161 55.1087C47.4614 53.0752 48.7091 49.4734 50.343 48.1089C50.8329 47.7255 51.4253 47.5237 52.0179 47.3606C54.2295 46.7905 56.4495 46.2514 58.6654 45.6971C59.0411 45.6046 58.9737 44.9634 58.5718 45.0046C58.0385 45.0591 57.5034 45.1087 56.9685 45.1601Z" clip-rule="evenodd"/><path fill="#593B15" fill-rule="evenodd" d="M7.73517 44.7785C7.58529 44.76 7.43864 44.7065 7.2927 44.6646C7.0705 44.5994 6.85162 44.5234 6.63687 44.4368C6.19347 44.2592 5.76328 44.049 5.35996 43.7919C4.70853 43.3763 4.13285 42.8435 3.69895 42.2022L3.66884 42.1575C3.42096 41.7797 2.9639 40.9413 3.47656 40.6545C3.14621 40.3784 2.83393 39.8824 2.85154 39.4995C2.87656 38.9581 3.54027 38.9653 3.88336 39.1948C4.10807 39.3452 4.27625 39.5558 4.44513 39.7629C4.6822 40.0528 4.93648 40.3283 5.2066 40.5878L5.26336 40.6413C5.25463 40.6201 5.2469 40.5986 5.24019 40.5767C5.12552 40.2197 5.26197 39.755 5.61872 39.5917C5.83718 39.4914 6.06397 39.5525 6.27548 39.6375L6.30791 39.6507C6.59285 39.7687 6.88104 39.8731 7.17756 39.9568C8.3866 40.298 9.64822 40.3548 10.8869 40.5253C11.3641 40.5913 11.8502 40.6744 12.3248 40.797C12.506 40.0279 12.9498 39.2905 13.4315 38.6838C15.7376 35.7818 19.5408 34.8227 23.0201 34.2019C23.3373 34.1456 23.6002 34.5656 23.7848 34.4662C24.1346 34.2783 24.4425 34.0119 24.7126 33.7226C25.2888 33.1052 25.6974 32.3789 26.1774 31.6911C26.4149 31.3513 26.9611 31.6554 26.7408 32.0201L26.6329 32.1985C26.1888 32.9287 25.6967 33.6811 25.0596 34.2475C24.721 34.548 24.3452 34.7854 23.9155 34.9339C23.59 35.046 23.1334 35.1405 22.7769 35.0317C23.707 36.3797 24.8736 37.5204 26.103 38.5971C27.3441 39.6832 28.6828 40.6559 30.0295 41.6069L30.1418 41.6861C32.3359 40.0851 34.1894 37.9969 35.4897 35.611C35.2173 35.5781 34.9474 35.4035 34.7145 35.2731C34.434 35.1155 34.1704 34.9274 33.9647 34.6768C33.5169 34.131 33.5752 33.4272 33.4944 32.7649C33.4895 32.7236 33.5437 32.7134 33.5688 32.7341C33.8115 32.9356 33.8968 33.2662 33.998 33.5516C34.1097 33.8655 34.2359 34.124 34.4919 34.3448C34.7301 34.5505 35.0208 34.7018 35.3032 34.8364C35.4489 34.9054 36.1719 35.0831 36.2542 35.23C37.5033 34.9367 38.72 35.4436 39.6454 36.2984C40.5396 37.1245 41.1959 38.198 41.7753 39.2581C42.3936 40.389 42.9 41.5682 43.3367 42.7798C43.7792 44.0099 44.1183 45.2666 44.3048 46.5612C44.4621 47.6525 44.5587 48.7612 44.621 49.8649L44.6287 50.0027C45.5533 48.5524 46.4994 47.1159 47.4665 45.6936C47.2467 45.1066 47.4899 44.5073 47.9016 44.0539C48.3577 43.5521 48.9885 43.3191 49.592 43.0478L49.6712 43.0119C49.9622 42.8792 50.252 42.733 50.5033 42.5342C50.745 42.3422 50.9227 42.0778 51.1772 41.9011C51.5472 41.6435 52.2188 41.6984 52.2359 42.2609C52.2447 42.5699 52.112 42.9086 51.9906 43.1863C51.853 43.5002 51.6677 43.7847 51.4474 44.046C51.4379 44.0574 51.4269 44.0673 51.4147 44.0754L51.4064 44.0808C51.7108 44.1313 52.0175 44.1718 52.3302 44.1862C52.9613 44.2149 53.5988 44.1686 54.2166 44.0354C54.8498 43.9007 55.4605 43.6764 56.0303 43.3693C56.5163 43.106 56.9667 42.7652 57.5187 42.685C57.5695 42.6771 57.6209 42.6723 57.6737 42.6693C57.762 42.6644 57.85 42.7682 57.8152 42.8553C57.7962 42.9032 57.7761 42.9507 57.7541 42.9987C57.5632 43.4194 57.2704 43.8273 56.9053 44.1371L56.877 44.1607C57.006 44.1161 57.1329 44.0658 57.2574 44.0099C57.9911 43.6793 58.6566 43.1798 59.4431 42.9792C59.4802 42.9695 59.5179 42.9605 59.5557 42.9524C59.7989 42.8998 59.9271 43.1643 59.7841 43.3455C59.7612 43.3749 59.7383 43.4036 59.7142 43.4326C59.3645 43.8694 58.9745 44.2723 58.5494 44.6361C58.4029 44.7607 58.2526 44.8806 58.0986 44.9958C58.0339 45.0447 57.9688 45.0924 57.903 45.1395L57.8706 45.1624C57.9473 45.108 58.0233 45.0528 58.0986 44.9958C58.5801 44.8487 59.0542 44.6785 59.5193 44.4857C59.704 44.4097 59.8474 44.5969 59.8668 44.7505C59.9326 45.2657 59.3609 45.6382 58.9888 45.8861C58.6159 46.1347 58.2054 46.3237 57.7849 46.4755C56.9766 46.7678 56.1276 46.9005 55.28 47.0194L54.8683 47.0768C53.2386 47.3048 51.5366 47.5772 50.3671 48.8458C49.7118 49.5568 49.2684 50.4399 48.8627 51.309C48.4576 52.1771 48.1017 53.0683 47.764 53.9643C47.4139 54.8914 47.1091 55.8359 46.7852 56.7725C46.4875 57.6327 46.1322 58.4817 45.78 59.3222L45.7247 59.4547C44.9771 61.2408 44.0845 62.9231 42.8405 64.4145C42.6352 64.6608 42.304 64.3112 42.4935 64.0673C43.7947 62.3889 44.7003 60.4084 45.4476 58.4328C45.7877 57.534 46.0726 56.6134 46.3995 55.7097L46.5941 55.1727C46.8522 54.4565 47.1173 53.7429 47.3891 53.0319C47.735 52.1335 48.1154 51.2458 48.5505 50.387L48.5966 50.2967C49.0226 49.468 49.5288 48.6517 50.2254 48.0246C51.4791 46.8957 53.1473 46.6249 54.7606 46.4104L55.2679 46.3434C55.9499 46.2528 56.6338 46.1527 57.297 45.9702C57.6797 45.8655 58.0536 45.7314 58.4051 45.5463C58.5454 45.4727 58.6818 45.3918 58.8137 45.3039C58.436 45.4147 58.0528 45.5056 57.6656 45.5761C57.4752 45.6109 57.2866 45.6368 57.0987 45.6549C56.6148 45.7029 56.1345 45.701 55.6388 45.6751C55.5966 45.6725 55.583 45.6065 55.6281 45.5982C55.9753 45.5349 56.3205 45.461 56.6632 45.3767L56.7665 45.3514C56.7684 45.2942 56.7908 45.2333 56.8379 45.1756C57.0093 44.9671 57.3345 44.8603 57.5602 44.713C57.7969 44.559 58.0252 44.3924 58.244 44.214C58.4435 44.0507 58.6357 43.8788 58.82 43.6985C58.3219 43.9286 57.8495 44.2237 57.3292 44.406C56.9157 44.5513 56.482 44.6493 56.0444 44.684L56.0173 44.6861L55.9902 44.688C55.5336 44.7209 55.074 44.7077 54.6241 44.8063C54.5739 44.8177 54.5581 44.75 54.6033 44.731C54.9962 44.5675 55.4048 44.5043 55.8179 44.428C55.8229 44.4103 55.8319 44.3939 55.8441 44.3801C55.8562 44.3663 55.8714 44.3554 55.8883 44.3481L55.9942 44.2976C56.3088 44.1463 56.6023 43.9939 56.8638 43.7483C57.0947 43.5322 57.2867 43.278 57.4316 42.9968C56.8536 43.1236 56.3461 43.5619 55.8204 43.8081C55.2478 44.0772 54.6422 44.2693 54.0193 44.3796L53.9484 44.3917C52.785 44.5858 51.386 44.561 50.3437 43.9559C50.3104 43.9365 50.3345 43.892 50.3688 43.8973C50.6644 43.9457 50.9569 44.0029 51.2498 44.0539C51.1923 44.0015 51.1668 43.9075 51.2331 43.8322C51.4958 43.5308 51.7038 43.1863 51.8366 42.8094L51.862 42.7358C51.9232 42.5609 52.0267 42.2893 51.9211 42.1316C51.8203 41.9812 51.5829 42.0019 51.4411 42.0656C51.146 42.1988 50.9495 42.5312 50.701 42.7318C50.4299 42.9512 50.1216 43.1138 49.8058 43.2593L49.7391 43.2897C49.1931 43.5352 48.6098 43.7421 48.1805 44.1758C47.9495 44.4088 47.7508 44.7002 47.6843 45.0266C47.6523 45.1762 47.6556 45.3311 47.694 45.4791C47.7257 45.5951 47.7925 45.6667 47.7542 45.7846C47.7042 45.9368 47.5277 46.1192 47.4366 46.2547C47.3308 46.4115 47.2256 46.5686 47.1204 46.7256C46.9105 47.04 46.7013 47.3553 46.4924 47.6701C45.9388 48.5061 45.3919 49.3465 44.8518 50.1913L44.6532 50.5026L44.5483 50.6666L44.3695 50.9481C44.3759 50.9736 44.3751 51.0005 44.3669 51.0255C44.3384 51.1056 44.2821 51.1729 44.2082 51.215L44.1957 51.2224C43.1511 52.8739 42.1233 54.5361 41.0852 56.1915C41.0295 56.6966 40.9788 57.2021 40.933 57.7082C40.8308 58.8531 40.7609 60.0007 40.7384 61.1497C40.7275 61.706 40.772 62.2656 40.7961 62.8214C40.8079 63.0864 40.8239 63.3514 40.845 63.6162L40.8603 63.8039C40.8809 64.0619 40.8927 64.3179 40.8 64.5639C40.7178 64.7798 40.4671 64.8283 40.3189 64.6638C38.3843 64.586 36.4481 64.5266 34.5118 64.4898C31.0462 64.4233 27.5792 64.4335 24.1131 64.5007C22.3722 64.5345 20.6308 64.582 18.8905 64.6406C18.0329 64.6691 17.1751 64.7092 16.317 64.721C15.8549 64.7273 15.1272 64.5588 15.0899 64.0388L15.0892 64.0228C15.0313 64.0385 14.9715 64.0513 14.9104 64.0606C14.8847 64.0646 14.8584 64.0637 14.833 64.0578L14.821 64.0548C14.132 64.2649 13.2603 63.9651 12.6056 63.7902L12.5514 63.7761C11.9266 63.613 11.4244 63.3799 11.0148 62.8619C10.2978 61.9548 10.0529 60.7365 9.92575 59.6138C9.80621 58.5572 9.79949 57.4812 9.94475 56.4264C9.85903 55.5672 9.94289 54.6806 10.0402 53.826C10.0881 53.4035 10.1444 52.9814 10.2121 52.5614C10.2498 52.327 10.2992 52.0948 10.3495 51.8632C10.3696 51.7707 10.3865 51.6711 10.412 51.5748L10.4236 51.5338C10.3451 51.5439 10.2596 51.5268 10.1769 51.4814C9.97996 51.3732 9.92274 51.1543 9.91926 50.9449C9.90861 50.3131 9.98413 49.6633 10.0506 49.0358C10.117 48.4071 10.2103 47.7816 10.33 47.1609L10.361 47.0013C10.4523 46.5385 10.5568 46.0605 10.7407 45.6255C10.0502 45.508 9.36143 45.3832 8.69146 45.1707C8.36237 45.0668 8.0425 44.9356 7.73517 44.7785ZM43.7792 51.3517C43.7683 51.354 43.7581 51.357 43.7477 51.36C43.4718 51.4374 43.1928 51.5029 42.9149 51.5734C42.4342 51.6943 41.9644 51.8296 41.5175 52.0395C41.4239 53.2214 41.2851 54.3996 41.1531 55.5783L41.1269 55.8139C41.3289 55.4375 41.5379 55.0648 41.7538 54.6961C42.414 53.5726 43.0895 52.4576 43.7792 51.3517ZM10.5918 51.4687C10.5932 51.609 10.564 51.755 10.5482 51.8903C10.5227 52.1097 10.5021 52.33 10.4764 52.5491C10.4228 52.9895 10.3791 53.4311 10.3455 53.8735C10.3247 54.1561 10.3108 54.4397 10.2987 54.723C10.576 53.6856 10.9437 52.6707 11.2932 51.6542C11.2325 51.6465 11.1724 51.6342 11.1135 51.6174L11.0097 51.5893C10.9485 51.5736 10.7502 51.5249 10.5918 51.4687ZM44.6532 50.5026L44.6551 50.5492C44.6625 50.7141 44.5636 50.807 44.4438 50.8311C44.5133 50.7216 44.5833 50.6117 44.6532 50.5026ZM12.8996 42.6825C13.1915 42.7084 13.478 42.7707 13.7512 42.8782L13.7773 42.8887C13.9793 42.9667 14.2747 43.0647 14.3407 43.2804C14.3593 43.3415 14.3095 43.3918 14.2522 43.3969C14.0329 43.4145 13.7746 43.1794 13.5714 43.1002C13.3451 43.0108 13.1094 42.9476 12.8688 42.9116C12.3265 42.8321 11.773 42.8931 11.261 43.0888C11.2309 43.1006 11.2124 43.0531 11.2393 43.039C11.7503 42.7608 12.3186 42.631 12.8996 42.6825ZM6.70776 44.0829C6.67371 44.0525 6.64011 44.0216 6.60698 43.9902C6.34451 43.7419 6.11216 43.4521 5.94027 43.1337L5.89486 43.0476C5.75471 42.7761 5.58258 42.3894 5.912 42.1939C6.10892 42.0769 6.34567 42.1061 6.56482 42.1772C6.57895 42.1816 6.59332 42.1865 6.60745 42.1914C6.70544 42.2256 6.79973 42.2669 6.88405 42.306C7.24961 42.474 7.57208 42.7182 7.90984 42.9336C8.27587 43.1673 8.63702 43.3165 9.05934 43.4039L9.09919 43.412C9.49532 43.4903 9.92529 43.5408 10.2019 43.867C10.2714 43.9492 10.2077 44.1032 10.0877 44.0627C9.3232 43.8046 8.51424 43.7479 7.81231 43.3244C7.52158 43.149 7.2466 42.948 6.94961 42.7819C6.79208 42.6936 6.62922 42.6165 6.45594 42.5636L6.36096 42.5358C6.30559 42.5196 6.23934 42.5036 6.19486 42.5194C6.11007 42.5488 6.13695 42.5942 6.16336 42.6734L6.1659 42.6816C6.37208 43.3191 6.95934 43.8526 7.50351 44.2056C7.62861 44.287 7.75602 44.3613 7.88621 44.4304C8.76745 44.9004 9.75339 45.1191 10.722 45.3785C10.722 45.3785 11.2819 45.5349 11.4674 45.5938C11.6741 45.5766 11.9095 45.6496 12.0651 45.7367C12.2108 45.8177 12.3357 45.9314 12.4302 46.0687C12.4302 46.0687 12.5187 46.1426 12.5349 46.2572C12.5813 46.3633 12.6128 46.478 12.6283 46.5975C12.6371 46.6675 12.6195 46.7212 12.5864 46.7595C12.6864 48.2965 12.2713 49.8248 11.8034 51.2856L11.757 51.4297L11.7274 51.521C11.2228 53.0697 10.6437 54.6072 10.3854 56.2219C10.2125 57.3005 10.2179 58.4166 10.3448 59.5003L10.3536 59.5749C10.4787 60.5993 10.719 61.7486 11.3702 62.5731C11.7021 62.9937 12.0957 63.1809 12.5989 63.3165L12.6264 63.3236C13.0817 63.4436 13.5515 63.6134 14.0208 63.6649C14.4563 63.7124 14.8214 63.5504 15.2134 63.3985L15.2139 63.398C16.0397 62.6671 16.4146 61.6026 16.6916 60.5284C17.4095 57.7485 17.3203 54.8627 16.9133 52.042C16.7009 50.5682 16.412 49.1071 16.1243 47.6467C15.9804 46.9168 15.8254 46.1882 15.6966 45.4557L15.6202 45.0246C15.5771 44.7852 15.5378 44.5451 15.502 44.3046C15.4552 43.9809 15.4411 43.6626 15.4249 43.3371C15.0295 42.6816 14.4554 42.1415 13.7903 41.7542C13.314 41.4767 12.8099 41.2842 12.2896 41.1447C10.8024 40.7437 9.18073 40.772 7.6842 40.4636C7.1815 40.3601 6.70428 40.2065 6.22706 40.0223L6.1622 39.9968C5.94328 39.9118 5.72019 39.8643 5.61154 40.1224C5.53417 40.3059 5.58003 40.4968 5.6961 40.651C5.98058 41.0291 6.55208 41.2043 6.98227 41.3405C7.24127 41.4227 7.50559 41.4878 7.7727 41.5362C8.04003 41.5849 8.3083 41.5969 8.56475 41.6914C8.66343 41.7278 8.68289 41.8849 8.56475 41.9127C8.23973 41.9887 7.91285 41.9236 7.58969 41.8603C7.23442 41.7899 6.88536 41.6912 6.54583 41.5652C6.48328 41.542 6.41841 41.5177 6.35239 41.4917L6.30258 41.4721C6.35401 41.5093 6.40544 41.5462 6.4571 41.5828C6.471 41.5925 6.46266 41.6185 6.44436 41.6122C5.64583 41.3141 4.91911 40.7764 4.35617 40.14L4.32837 40.108C4.13007 39.881 3.67834 39.1934 3.29749 39.385C2.94004 39.5646 3.54953 40.2565 3.78119 40.5396L3.80807 40.5727C4.07123 40.5797 4.32629 40.7435 4.53965 40.8758C4.91031 41.1056 5.29718 41.3032 5.6917 41.4883C6.47587 41.8571 7.30822 42.117 8.08405 42.5043C8.09424 42.5097 8.08637 42.5229 8.07664 42.5215C7.58297 42.4425 7.0944 42.3167 6.61718 42.1605L6.59587 42.1538L6.57478 42.1469C6.27724 42.0483 5.98323 41.9394 5.69332 41.8202C5.37151 41.6897 5.05741 41.541 4.75254 41.3748C4.47641 41.2239 4.17015 40.9522 3.85 40.9121C3.81984 40.9079 3.7893 40.907 3.75895 40.9096C3.39154 40.9404 3.69548 41.5494 3.79834 41.7317C3.96629 42.0301 4.16859 42.3077 4.40112 42.559C4.87254 43.0712 5.44359 43.4771 6.06166 43.7928C6.2727 43.9005 6.48837 43.9955 6.70776 44.0829Z" clip-rule="evenodd"/><path fill="#fff" fill-rule="evenodd" d="M30.0525 12.4981C32.8315 12.4981 36.899 14.3544 37.205 16.1405C37.5655 18.2453 38.3661 26.16 37.9301 28.75C37.4944 31.3402 35.7947 33.2539 32.036 33.2539C28.2773 33.2539 25.4717 31.2032 24.8277 30.4992C24.1834 29.7952 23.403 27.6042 23.403 27.6042C23.403 27.6042 21.3451 27.2551 21.3354 25.614C21.3261 23.9729 22.3693 23.4658 22.3693 23.4658C22.3693 23.4658 21.8064 16.6578 22.9897 14.9715C24.1732 13.2852 27.2735 12.4981 30.0525 12.4981Z" clip-rule="evenodd"/><path fill="#593B15" fill-rule="evenodd" d="M38.4429 21.1677C38.5951 22.8222 38.6523 24.4909 38.6817 26.1517C38.71 27.7253 38.5717 29.3664 37.6754 30.7119C36.8919 31.889 35.6986 32.7433 34.3698 33.2046C33.6137 33.4675 32.7762 33.5648 31.9777 33.5889C31.565 33.6004 31.1519 33.5844 30.7413 33.5409C30.6895 33.5357 30.6377 33.5308 30.5859 33.5263C30.2386 33.4953 29.8941 33.4645 29.6409 33.202C29.5612 33.1193 29.5622 32.9495 29.6803 32.8955C29.9048 32.7934 30.057 32.7825 30.3032 32.8163C30.5073 32.8441 30.7119 32.8661 30.9174 32.8805C31.358 32.9113 31.8014 32.9122 32.2418 32.8784C33.0514 32.8163 33.8794 32.5876 34.6144 32.2409C35.7672 31.6965 36.7573 30.8043 37.2917 29.6337C37.9045 28.2934 37.8737 26.7436 37.8449 25.3001L37.8438 25.241C37.812 23.64 37.7527 22.0439 37.6137 20.448C37.5612 19.8445 37.4861 19.244 37.411 18.6433C37.3897 18.4744 37.3686 18.3053 37.348 18.136C37.2984 17.7268 37.2336 17.3195 37.1537 16.9151C37.129 16.7932 37.1022 16.6717 37.0733 16.5507C37.0522 16.4597 37.0311 16.3689 37.0119 16.2774C36.9786 16.2827 36.945 16.286 36.9113 16.2873C36.7068 16.2943 36.4832 16.2442 36.3315 16.0988C36.2656 16.1418 36.189 16.1657 36.1103 16.1678C35.5661 16.1949 35.0166 16.1829 34.4683 16.1708C34.1687 16.1643 33.8694 16.1578 33.5715 16.1576C32.5964 16.1569 31.6214 16.1581 30.6463 16.1613C29.9296 16.1641 29.2117 16.1669 28.4958 16.1479C28.3433 16.1441 28.1908 16.141 28.0383 16.1386C27.3971 16.1275 26.7466 16.1161 26.1202 15.9998C25.8593 16.9274 25.8686 17.9463 26.4123 18.7747C26.5659 19.0082 26.4412 19.2834 26.2411 19.4293C26.0365 19.5781 25.6686 19.8065 25.3538 19.8299L25.317 19.9119C25.2987 19.9529 25.2802 19.9937 25.2623 20.0347C25.1122 20.3768 24.9769 20.7213 24.8822 21.0841C24.8332 21.2717 24.7911 21.461 24.7559 21.6517C24.7589 21.6853 24.7619 21.7186 24.7654 21.752C24.7654 21.7554 24.7659 21.7589 24.7663 21.7626L24.7724 21.8009L24.7856 21.8715C24.799 21.944 24.8127 22.0163 24.827 22.0883C24.8727 22.3209 24.9079 22.5554 24.9329 22.791C24.9783 23.2219 24.9739 23.782 24.5539 24.0371C24.3294 24.1735 24.0602 24.1594 23.8228 24.0679C23.6905 24.0167 23.5744 23.9479 23.4549 23.877L23.3808 23.8332C23.3422 23.811 23.3031 23.7897 23.2636 23.7693C23.214 23.7439 23.1653 23.7168 23.1176 23.688C23.0939 23.6727 23.0715 23.6557 23.0504 23.637C22.9117 23.668 22.7771 23.7149 22.6492 23.7769C22.4157 23.893 22.2107 24.0609 22.0364 24.2539C21.6658 24.6646 21.5548 25.2433 21.6067 25.7805C21.6551 26.2805 21.8513 26.8548 22.2463 27.1872C22.4182 27.332 22.6325 27.4168 22.8591 27.4144C22.9707 27.4133 23.0736 27.3899 23.1811 27.3614C23.2272 27.3493 23.2777 27.344 23.3282 27.3389C23.3947 27.332 23.4609 27.325 23.5165 27.3028C23.6618 27.2444 23.8408 27.4221 23.7818 27.568C23.7686 27.6005 23.757 27.6317 23.7459 27.6621C23.7195 27.7341 23.6951 27.7999 23.6558 27.8604C24.0625 28.5227 24.5036 29.1631 24.9774 29.7792C25.2767 30.1689 25.6135 30.5152 25.9517 30.8629C26.0944 31.0096 26.2374 31.1567 26.378 31.3073C26.5872 31.5315 26.6743 31.9731 26.2958 32.069C25.9631 32.1542 25.7046 31.8489 25.4993 31.6068C25.472 31.5744 25.4453 31.5431 25.4198 31.5139C24.5217 30.492 23.8429 29.3189 23.5251 27.9945C23.3819 28.0964 23.2175 28.1518 23.0442 28.1757C22.6995 28.2234 22.3487 28.1547 22.0476 27.9804C20.9025 27.3188 20.6252 25.5313 21.1617 24.411C21.292 24.1402 21.4811 23.9019 21.7151 23.7134C21.6953 23.6766 21.6903 23.6336 21.7012 23.5932C21.7221 23.5156 21.7448 23.4392 21.7686 23.3629C21.7547 23.3575 21.7431 23.3475 21.7355 23.3346C21.7279 23.3217 21.7249 23.3066 21.7269 23.2918C21.7455 23.1053 21.7631 22.9188 21.7809 22.7326L21.7907 22.6307C21.7883 22.5299 21.7853 22.4289 21.7823 22.3276C21.7754 22.096 21.7684 21.8639 21.7712 21.6303C21.7737 21.3825 21.7823 21.1341 21.7909 20.8863C21.8006 20.6008 21.8103 20.3154 21.8113 20.03C21.8145 19.1055 21.8347 18.1814 21.8551 17.2571C21.8757 16.3207 21.8961 15.3843 21.8991 14.4475C21.9019 13.5371 21.9037 12.6255 21.8798 11.7158C21.8795 11.7094 21.8793 11.7031 21.8791 11.6968L21.8789 11.6796C21.8759 11.568 21.8687 11.4505 21.8615 11.3298C21.8212 10.6645 21.7756 9.9051 22.3781 9.50618C22.4949 9.4288 22.6408 9.42788 22.768 9.47791C23.1341 9.22263 23.5932 9.09985 24.0322 9.02873C24.6795 8.92448 25.3309 8.8617 25.9828 8.79892C26.1734 8.78039 26.3641 8.76232 26.5547 8.74286C27.0014 8.6984 27.4503 8.68107 27.8991 8.69096C28.1293 8.69606 28.361 8.68772 28.5931 8.67938C28.812 8.67151 29.0314 8.66363 29.2501 8.6671C29.7609 8.67544 30.2759 8.69444 30.7888 8.7366C30.8006 8.73521 30.8127 8.73429 30.8247 8.73313L30.8613 8.72965C31.6381 8.65506 32.4141 8.69467 33.1907 8.73405C33.3785 8.74332 33.5666 8.75305 33.7547 8.76093C34.6737 8.79961 35.6442 8.89459 36.4696 9.33475C36.5757 9.39127 36.6656 9.45544 36.7422 9.52703C36.8481 9.54046 36.9505 9.57337 37.0443 9.62409C37.31 9.57035 37.6066 9.68942 37.6696 9.99776C37.7611 10.4495 37.7958 10.9054 37.7409 11.3639L37.7388 11.3815L37.737 11.3977C37.848 11.8228 37.8405 12.2873 37.7483 12.7066C37.7873 13.2364 37.8095 13.7676 37.8125 14.2981C37.813 14.3785 37.8141 14.4591 37.8153 14.5399C37.8195 14.8283 37.8236 15.1188 37.797 15.4047C37.7669 15.7263 37.6346 15.9809 37.4263 16.2253C37.3869 16.2714 37.3207 16.279 37.2656 16.2676C37.2526 16.265 37.2398 16.2611 37.2276 16.2561C37.3304 16.4766 37.4154 16.7078 37.4988 16.9344L37.554 17.084C37.7157 17.5177 37.8723 17.959 37.9832 18.4084C38.2084 19.3147 38.3567 20.2378 38.4429 21.1677ZM22.8466 25.2695C22.801 25.2362 22.7528 25.2066 22.7025 25.181C22.6962 25.178 22.428 25.0909 22.4798 25.206C22.4975 25.244 22.4514 25.2866 22.4187 25.2528C22.3256 25.1585 22.3774 25.0448 22.4662 24.9607C22.626 24.8083 22.8649 24.8435 23.0613 24.8798C23.3342 24.9303 23.5997 25.0497 23.8297 25.203C24.0774 25.368 24.3832 25.5966 24.432 25.9096C24.4765 26.1968 24.1909 26.5137 23.8967 26.3212C23.7375 26.217 23.6261 26.0618 23.5142 25.9063C23.4345 25.7954 23.3546 25.6842 23.2571 25.5908C23.142 25.4822 23.0179 25.3837 22.8859 25.2964L22.8466 25.2695Z" clip-rule="evenodd"/><path fill="#593B15" fill-rule="evenodd" d="M34.159 28.7578C34.2341 28.6272 34.4069 28.5063 34.5651 28.5248C35.2737 28.608 35.2726 29.4674 34.999 29.9692C34.7562 30.414 34.2542 30.6753 33.7517 30.6371C33.2238 30.597 32.7739 30.2863 32.5758 29.7924C32.4449 29.4656 32.3845 28.8621 32.7329 28.6427C32.7364 28.6406 32.7405 28.6398 32.7445 28.6403C32.7485 28.6408 32.7523 28.6426 32.7551 28.6455C32.9219 28.8399 32.9286 29.1315 33.0748 29.3479C33.2108 29.5492 33.4221 29.7153 33.6695 29.741C33.8541 29.7602 34.0413 29.6935 34.1136 29.5274C34.1525 29.4378 34.1481 29.3889 34.1335 29.3273L34.1201 29.2735C34.0737 29.0854 34.0529 28.9422 34.159 28.7578ZM34.3485 24.9885C34.718 25.2132 35.2812 25.7372 34.8836 26.2944C34.4154 26.7857 33.7418 26.2223 33.4098 25.9677C33.1019 25.7701 32.7558 26.2779 33.0415 26.5084C35.4408 28.2855 36.4147 25.0473 34.5354 24.7242C34.3283 24.6887 34.2517 24.919 34.3485 24.9885ZM30.4455 23.4475C30.6725 23.107 31.1903 23.157 31.3151 23.561C31.3828 23.7799 31.2894 23.9766 31.2943 24.1953C31.2982 24.3799 31.2862 24.5856 31.2296 24.7645C31.1006 25.1722 30.7341 25.4602 30.3005 25.4483C29.8682 25.4363 29.4873 25.1627 29.3064 24.7772C29.1248 24.3901 29.1632 23.9898 29.2957 23.5962C29.3022 23.5775 29.327 23.5682 29.3418 23.5842C29.4987 23.7507 29.6134 23.9268 29.7322 24.1135L29.8538 24.3046C29.9469 24.4487 30.082 24.6329 30.2557 24.6213L30.2817 24.6188C30.3301 24.6146 30.3227 24.6241 30.3598 24.5583C30.3771 24.528 30.3739 24.4712 30.3822 24.4353L30.3852 24.4232L30.3836 24.4165C30.3777 24.3811 30.3742 24.3454 30.3732 24.3095L30.3727 24.297C30.36 24.0308 30.2849 23.6887 30.4455 23.4475ZM36.196 23.6741C36.1552 23.2385 36.7673 23.1419 36.9707 23.4642C37.0768 23.6321 37.1078 23.8432 37.1312 24.0433L37.1421 24.1381C37.1662 24.3436 37.1757 24.5571 37.0867 24.7487C36.9463 25.0506 36.641 25.21 36.3118 25.1847C36.1561 25.1728 36.0059 25.1224 35.8745 25.0381C35.7431 24.9537 35.6348 24.838 35.5591 24.7015C35.4243 24.4543 35.2902 23.972 35.454 23.7141C35.4639 23.6986 35.4836 23.6965 35.4973 23.7086C35.652 23.8462 35.6771 24.0968 35.7693 24.2759C35.864 24.4605 36.0081 24.6405 36.2261 24.6686C36.4348 24.6954 36.5145 24.5812 36.4612 24.3822C36.3927 24.1253 36.2217 23.9507 36.196 23.6741ZM30.6109 20.8585L30.711 20.8202C31.0538 20.6905 31.5248 20.5409 31.8035 20.8198C31.9754 20.9917 32.0083 21.2451 31.8855 21.455C31.7368 21.7093 31.4699 21.7156 31.2123 21.7529C30.9154 21.7958 30.6251 21.8762 30.3484 21.992C30.0412 22.1222 29.7561 22.2843 29.4767 22.4653C29.211 22.6374 28.9464 22.9188 28.6286 22.9719C28.6156 22.974 28.6008 22.9684 28.5975 22.9541C28.5252 22.6432 28.7259 22.3371 28.9049 22.0946C29.1215 21.8011 29.384 21.5599 29.6773 21.344C29.9604 21.1353 30.284 20.9845 30.6109 20.8585ZM36.8398 21.9639L36.8703 21.9586C37.0781 21.9239 37.2667 21.932 37.4233 22.0967C37.5431 22.2222 37.5892 22.3851 37.532 22.5514C37.4794 22.7048 37.3617 22.8605 37.191 22.8927C36.6146 23.0011 35.9759 22.983 35.3965 22.901C35.1315 22.8635 34.8642 22.8174 34.6059 22.7449L34.487 22.7104C34.2716 22.6487 34.0249 22.5843 33.8683 22.4259C33.812 22.3689 33.8444 22.2873 33.9118 22.2609C34.1849 22.1539 34.5593 22.2107 34.8507 22.2023C35.19 22.1917 35.5288 22.1683 35.8663 22.1324C36.1957 22.0981 36.5147 22.0235 36.8398 21.9639Z" clip-rule="evenodd"/><path fill="#593B15" fill-rule="evenodd" d="M39.167 25.9988C39.0046 25.781 38.7132 25.4949 38.4183 25.5104C38.3805 25.5123 38.3664 25.5533 38.3891 25.5809C38.4855 25.6988 38.6173 25.7826 38.7139 25.9029C38.8283 26.0453 38.9108 26.217 38.9646 26.3907C39.0426 26.643 39.0642 26.9284 38.9947 27.1851C38.8721 27.6373 38.4846 27.9688 38.0618 28.1379C37.6434 28.3054 37.1398 28.3626 36.7441 28.1173C36.1601 27.7548 35.6646 27.2324 34.9304 27.2222C34.7585 27.2196 34.6376 27.2984 34.5656 27.4107C34.4931 27.3023 34.3735 27.2259 34.206 27.2238C33.3829 27.2145 32.7688 27.7814 32.078 28.1347C31.611 28.3735 31.007 28.2994 30.5254 28.1416C30.0709 27.9929 29.5777 27.6941 29.4065 27.2222C29.3117 26.9616 29.3331 26.6574 29.4301 26.4005C29.4949 26.2291 29.5914 26.0714 29.7146 25.9358C29.8411 25.7982 30.0074 25.7115 30.1371 25.5809C30.1636 25.5542 30.1427 25.5127 30.1077 25.5104C29.5573 25.4731 29.0604 26.1306 28.9566 26.6076C28.8542 27.0771 29.0069 27.5458 29.3157 27.9042C29.9437 28.633 31.1066 28.8732 32.0117 28.6592C32.7445 28.4859 33.4402 28.0867 34.206 28.1439C34.374 28.1565 34.4944 28.0865 34.5672 27.9804C34.6399 28.0897 34.7613 28.1611 34.9304 28.1446C35.6442 28.0756 36.2812 28.5813 36.9741 28.7048C37.5257 28.803 38.1215 28.6705 38.5941 28.3731C39.0883 28.0624 39.436 27.5639 39.4589 26.9697C39.4721 26.6277 39.3718 26.274 39.167 25.9988Z" clip-rule="evenodd"/><path fill="#593B15" fill-rule="evenodd" d="M37.7826 25.8222C37.0483 26.176 36.0234 25.6541 35.5295 25.1073C35.3497 24.9083 35.2112 24.3387 35.2802 23.9775C35.4677 22.9992 36.1714 22.412 36.9144 22.2116C37.9443 21.9336 38.9808 22.6378 38.8599 23.4688C38.7454 24.2565 38.5717 25.399 37.7826 25.8222ZM32.7832 23.943C32.7243 25.0091 31.8686 25.9422 30.8456 26.2186C29.1975 26.6787 28.383 25.5197 28.0142 24.2713C27.9774 24.1471 27.8912 23.7686 28.1226 23.4436C29.0321 22.166 31.245 22.3837 32.35 22.7347C32.6736 23.0439 32.8059 23.4908 32.7832 23.943ZM38.5807 22.1041L38.5793 22.106L38.568 22.099L38.5807 22.1041ZM39.9598 22.2273C39.8639 21.1418 36.4594 21.5574 36.0614 21.6463C34.9751 21.966 34.0367 22.8357 32.8221 22.4534C31.5637 21.05 27.326 21.4524 26.4375 22.1673C26.2694 22.1013 26.0648 22.1368 25.8482 22.1991C24.7355 22.1588 19.6559 22.5426 20.6949 23.9632C20.8527 24.0725 21.0102 23.9613 21.0146 23.7359C26.4308 21.78 25.9056 23.612 26.548 23.3979C26.646 23.4262 26.7484 23.444 26.8381 23.4628C27.3352 23.6229 27.5039 23.5735 27.5694 24.1318C28.0193 28.4428 33.758 26.9548 33.2875 23.4188C33.7534 23.3931 34.1611 23.1915 34.6538 23.3884C34.996 26.7195 37.6756 26.8541 38.482 25.6992C39.0901 24.8977 38.849 23.6882 39.685 23.0576C40.0149 23.334 40.0362 22.4016 39.9598 22.2273Z" clip-rule="evenodd"/></svg>