<svg xmlns="http://www.w3.org/2000/svg" width="11" height="21" fill="none" viewBox="0 0 11 21"><path fill="#AB9476" d="M9.16876 20.7083C8.9509 20.7091 8.73563 20.661 8.53879 20.5676C8.34194 20.4742 8.16852 20.3379 8.03126 20.1687L0.987515 11.4187C0.773021 11.1578 0.655762 10.8305 0.655762 10.4927C0.655762 10.1549 0.773021 9.82761 0.987515 9.56667L8.27918 0.816667C8.52672 0.518851 8.88242 0.331565 9.26804 0.296012C9.65366 0.260458 10.0376 0.379548 10.3354 0.627084C10.6332 0.874619 10.8205 1.23032 10.8561 1.61594C10.8916 2.00157 10.7725 2.38552 10.525 2.68333L4.00626 10.5L10.3063 18.3167C10.4846 18.5307 10.5979 18.7914 10.6327 19.0678C10.6675 19.3442 10.6224 19.6249 10.5028 19.8765C10.3831 20.1281 10.1939 20.3401 9.95746 20.4875C9.72105 20.635 9.44736 20.7116 9.16876 20.7083Z"/></svg>