<svg width="39" height="39" viewBox="0 0 39 39" fill="none" xmlns="http://www.w3.org/2000/svg">
<g id="Calender">
<path id="Vector" d="M27.8972 7.14187V4.9725H25.4597V7.14187H13.4794V4.9725H11.0419V7.14187H3.4491V35.2462H35.3438V7.14187H27.8972ZM32.9063 32.8087H5.8866V17.6597H32.9063V32.8087ZM5.8866 15.2222V9.57937H11.0419V11.7487H13.4794V9.57937H25.4597V11.7487H27.8972V9.57937H32.9063V15.2222H5.8866Z" fill="#AB9374"/>
<path id="Vector_2" d="M18.6956 19.4025H16.2825V21.84H18.6956V19.4025Z" fill="#AB9374"/>
<path id="Vector_3" d="M14.5762 24.0094H12.1631V26.4469H14.5762V24.0094Z" fill="#AB9374"/>
<path id="Vector_4" d="M18.6956 24.0094H16.2825V26.4469H18.6956V24.0094Z" fill="#AB9374"/>
<path id="Vector_5" d="M10.4447 24.0094H8.03162V26.4469H10.4447V24.0094Z" fill="#AB9374"/>
<path id="Vector_6" d="M14.5762 28.6284H12.1631V31.0659H14.5762V28.6284Z" fill="#AB9374"/>
<path id="Vector_7" d="M18.6956 28.6284H16.2825V31.0659H18.6956V28.6284Z" fill="#AB9374"/>
<path id="Vector_8" d="M10.4447 28.6284H8.03162V31.0659H10.4447V28.6284Z" fill="#AB9374"/>
<path id="Vector_9" d="M26.9831 19.4025H24.5699V21.84H26.9831V19.4025Z" fill="#AB9374"/>
<path id="Vector_10" d="M31.1025 19.4025H28.6893V21.84H31.1025V19.4025Z" fill="#AB9374"/>
<path id="Vector_11" d="M22.8394 19.4025H20.4385V21.84H22.8394V19.4025Z" fill="#AB9374"/>
<path id="Vector_12" d="M26.9831 24.0094H24.5699V26.4469H26.9831V24.0094Z" fill="#AB9374"/>
<path id="Vector_13" d="M31.1025 24.0094H28.6893V26.4469H31.1025V24.0094Z" fill="#AB9374"/>
<path id="Vector_14" d="M22.8394 24.0094H20.4385V26.4469H22.8394V24.0094Z" fill="#AB9374"/>
<path id="Vector_15" d="M22.8394 28.6284H20.4385V31.0659H22.8394V28.6284Z" fill="#AB9374"/>
</g>
</svg>
