<svg xmlns="http://www.w3.org/2000/svg" width="36" height="36" fill="none" viewBox="0 0 36 36"><g id="Favorite" clip-path="url(#clip0_30_75)"><path id="Vector" fill="#AB9374" d="M31.4383 11.0987C31.3327 10.7928 31.1406 10.5241 30.8853 10.3252C30.63 10.1263 30.3225 10.0057 30 9.97813L20.4838 8.59L16.219 -0.0565551C16.0821 -0.339318 15.8683 -0.577787 15.602 -0.744645C15.3358 -0.911502 15.028 -1 14.7138 -1C14.3996 -1 14.0918 -0.911502 13.8256 -0.744645C13.5594 -0.577787 13.3456 -0.339318 13.2086 -0.0565551L8.94388 8.57328L-0.572349 9.97813C-0.881881 10.0221 -1.17288 10.152 -1.41234 10.353C-1.65179 10.554 -1.8301 10.8182 -1.92703 11.1154C-2.01576 11.4059 -2.02373 11.715 -1.95006 12.0096C-1.8764 12.3043 -1.7239 12.5733 -1.50892 12.7878L5.39829 19.4776L3.72584 28.9771C3.65832 29.2923 3.68329 29.6202 3.79773 29.9215C3.91218 30.2227 4.11124 30.4845 4.37096 30.6753C4.63067 30.8662 4.93999 30.9779 5.2617 30.997C5.58341 31.0162 5.9038 30.942 6.18434 30.7834L14.7138 26.318L23.2433 30.7834C23.478 30.9158 23.7431 30.985 24.0126 30.9841C24.3669 30.9853 24.7124 30.8741 24.9994 30.6663C25.2589 30.4804 25.4597 30.2242 25.5783 29.9279C25.6968 29.6315 25.7281 29.3074 25.6684 28.9939L23.9959 19.4944L30.9031 12.8046C31.1446 12.6 31.3231 12.3311 31.4178 12.0291C31.5125 11.7272 31.5196 11.4045 31.4383 11.0987ZM21.1528 17.7885C20.9592 17.9765 20.814 18.2085 20.7295 18.4648C20.645 18.7211 20.6239 18.994 20.6677 19.2602L21.8719 26.2845L15.5835 22.9396C15.3391 22.8187 15.0701 22.7558 14.7974 22.7558C14.5248 22.7558 14.2558 22.8187 14.0114 22.9396L7.72299 26.2845L8.92716 19.2602C8.97104 18.994 8.94985 18.7211 8.86539 18.4648C8.78093 18.2085 8.63572 17.9765 8.44215 17.7885L3.4248 12.7711L10.4658 11.7509C10.7367 11.7132 10.9943 11.6097 11.2159 11.4493C11.4375 11.2889 11.6164 11.0767 11.7369 10.8311L14.7138 4.45906L17.858 10.8478C17.9785 11.0934 18.1574 11.3057 18.379 11.466C18.6006 11.6264 18.8582 11.73 19.1291 11.7677L26.1701 12.7878L21.1528 17.7885Z"/></g><defs><clipPath id="clip0_30_75"><rect width="36" height="36" fill="#fff"/></clipPath></defs></svg>