<svg width="37" height="39" viewBox="0 0 37 39" fill="none" xmlns="http://www.w3.org/2000/svg">
<g id="Mail" clip-path="url(#clip0_30_93)">
<g id="XMLID_146_">
<path id="XMLID_426_" d="M32.8596 9.40723L18.264 9.44531L3.66846 9.36914H3.66135C1.69917 9.36914 0.142212 11.342 0.142212 13.81V34.483C0.142212 36.951 1.69917 38.9238 3.66135 38.9238H32.8809C34.8431 38.9238 36.4 36.951 36.4 34.483V13.81C36.4 11.342 34.8573 9.40723 32.8596 9.40723ZM31.7149 12.4541L18.6764 25.2281L18.6266 25.2738L18.5839 25.3271C18.4275 25.51 18.2427 25.5328 18.1431 25.5328C18.0436 25.5328 17.8588 25.5023 17.7095 25.3119L17.6668 25.2586L5.20409 12.3932L18.264 12.4846L31.7149 12.4541ZM32.8809 35.877H3.66135C3.41252 35.877 2.98596 35.3742 2.98596 34.483V14.2975L15.6122 27.3686C16.2521 28.1303 17.1549 28.5721 18.1147 28.5873H18.1574C19.1029 28.5873 19.9845 28.1684 20.6314 27.4371L33.5705 14.7469V34.483C33.5563 35.3742 33.1297 35.877 32.8809 35.877Z" fill="#AB9374"/>
</g>
</g>
<defs>
<clipPath id="clip0_30_93">
<rect width="36.4" height="39" fill="white"/>
</clipPath>
</defs>
</svg>
