<svg width="35" height="35" viewBox="0 0 35 35" fill="none" xmlns="http://www.w3.org/2000/svg">
<g id="Menu">
<path id="Vector" d="M5.83333 10.2083C6.22011 10.2083 6.59104 10.0547 6.86453 9.7812C7.13802 9.50771 7.29167 9.13678 7.29167 8.75001C7.29167 8.36323 7.13802 7.9923 6.86453 7.71881C6.59104 7.44532 6.22011 7.29167 5.83333 7.29167C5.44656 7.29167 5.07563 7.44532 4.80214 7.71881C4.52865 7.9923 4.375 8.36323 4.375 8.75001C4.375 9.13678 4.52865 9.50771 4.80214 9.7812C5.07563 10.0547 5.44656 10.2083 5.83333 10.2083ZM5.83333 18.9583C6.22011 18.9583 6.59104 18.8047 6.86453 18.5312C7.13802 18.2577 7.29167 17.8868 7.29167 17.5C7.29167 17.1132 7.13802 16.7423 6.86453 16.4688C6.59104 16.1953 6.22011 16.0417 5.83333 16.0417C5.44656 16.0417 5.07563 16.1953 4.80214 16.4688C4.52865 16.7423 4.375 17.1132 4.375 17.5C4.375 17.8868 4.52865 18.2577 4.80214 18.5312C5.07563 18.8047 5.44656 18.9583 5.83333 18.9583ZM7.29167 26.25C7.29167 26.6368 7.13802 27.0077 6.86453 27.2812C6.59104 27.5547 6.22011 27.7083 5.83333 27.7083C5.44656 27.7083 5.07563 27.5547 4.80214 27.2812C4.52865 27.0077 4.375 26.6368 4.375 26.25C4.375 25.8632 4.52865 25.4923 4.80214 25.2188C5.07563 24.9453 5.44656 24.7917 5.83333 24.7917C6.22011 24.7917 6.59104 24.9453 6.86453 25.2188C7.13802 25.4923 7.29167 25.8632 7.29167 26.25ZM11.6667 7.29167C11.2799 7.29167 10.909 7.44532 10.6355 7.71881C10.362 7.9923 10.2083 8.36323 10.2083 8.75001C10.2083 9.13678 10.362 9.50771 10.6355 9.7812C10.909 10.0547 11.2799 10.2083 11.6667 10.2083H29.1667C29.5534 10.2083 29.9244 10.0547 30.1979 9.7812C30.4714 9.50771 30.625 9.13678 30.625 8.75001C30.625 8.36323 30.4714 7.9923 30.1979 7.71881C29.9244 7.44532 29.5534 7.29167 29.1667 7.29167H11.6667ZM10.2083 17.5C10.2083 17.1132 10.362 16.7423 10.6355 16.4688C10.909 16.1953 11.2799 16.0417 11.6667 16.0417H29.1667C29.5534 16.0417 29.9244 16.1953 30.1979 16.4688C30.4714 16.7423 30.625 17.1132 30.625 17.5C30.625 17.8868 30.4714 18.2577 30.1979 18.5312C29.9244 18.8047 29.5534 18.9583 29.1667 18.9583H11.6667C11.2799 18.9583 10.909 18.8047 10.6355 18.5312C10.362 18.2577 10.2083 17.8868 10.2083 17.5ZM11.6667 24.7917C11.2799 24.7917 10.909 24.9453 10.6355 25.2188C10.362 25.4923 10.2083 25.8632 10.2083 26.25C10.2083 26.6368 10.362 27.0077 10.6355 27.2812C10.909 27.5547 11.2799 27.7083 11.6667 27.7083H29.1667C29.5534 27.7083 29.9244 27.5547 30.1979 27.2812C30.4714 27.0077 30.625 26.6368 30.625 26.25C30.625 25.8632 30.4714 25.4923 30.1979 25.2188C29.9244 24.9453 29.5534 24.7917 29.1667 24.7917H11.6667Z" fill="#AB9374"/>
</g>
</svg>
