<svg xmlns="http://www.w3.org/2000/svg" width="21" height="21" fill="none" viewBox="0 0 21 21"><path fill="#33230E" d="M2.47615 14.4276C3.93095 15.884 5.86829 16.7583 7.92319 16.8858C9.97809 17.0133 12.0087 16.3852 13.6325 15.1197L19.2195 20.7052C19.4177 20.8965 19.6831 21.0024 19.9585 21C20.234 20.9976 20.4975 20.8871 20.6923 20.6924C20.8871 20.4976 20.9976 20.2342 21 19.9588C21.0024 19.6835 20.8965 19.4181 20.7051 19.2201L15.118 13.6346C16.44 11.9386 17.065 9.80226 16.8655 7.66137C16.6661 5.52048 15.6573 3.53627 14.0448 2.11341C12.4323 0.690548 10.3376 -0.0637919 8.1879 0.00423089C6.03819 0.0722537 3.99541 0.957515 2.47615 2.47947C1.69114 3.26386 1.06841 4.19517 0.643547 5.22022C0.21868 6.24527 0 7.34397 0 8.45353C0 9.56309 0.21868 10.6618 0.643547 11.6868C1.06841 12.7119 1.69114 13.6432 2.47615 14.4276ZM3.9617 3.96669C5.00029 2.92842 6.36685 2.28227 7.82856 2.13834C9.29026 1.9944 10.7567 2.36158 11.9779 3.17731C13.1992 3.99305 14.0998 5.20687 14.5262 6.61197C14.9526 8.01706 14.8786 9.52651 14.3166 10.8831C13.7546 12.2397 12.7395 13.3596 11.4442 14.0519C10.1489 14.7442 8.65359 14.9661 7.21301 14.6798C5.77242 14.3935 4.47569 13.6167 3.54376 12.4818C2.61183 11.3468 2.10236 9.92398 2.10214 8.45563C2.09925 7.62125 2.26215 6.79461 2.58137 6.02366C2.90058 5.25272 3.36977 4.55282 3.9617 3.96459V3.96669Z"/></svg>